<svg width="29" height="29" viewBox="0 0 29 29" fill="none" xmlns="http://www.w3.org/2000/svg">
<path d="M14.9553 23.8437C12.1976 26.6014 7.64961 26.6496 4.94975 23.9497C2.24989 21.2499 2.2981 16.7019 5.05581 13.9442L14.7078 4.29218C16.7301 2.26985 20.0047 2.23514 21.9846 4.21504C23.9645 6.19494 23.9298 9.46949 21.9075 11.4918L14.0939 19.3053C12.807 20.5923 10.8059 20.6135 9.54594 19.3536C8.28601 18.0936 8.30722 16.0925 9.59415 14.8056L16.4884 7.91128L17.8384 9.26121L10.9441 16.1555C10.3925 16.707 10.3848 17.4347 10.9248 17.9747C11.4648 18.5147 12.1925 18.507 12.744 17.9554L20.5575 10.1419C21.8445 8.85494 21.8657 6.85383 20.6057 5.5939C19.3458 4.33396 17.3447 4.35517 16.0578 5.64211L6.40575 15.2941C4.38342 17.3164 4.34871 20.591 6.32861 22.5709C8.30851 24.5508 11.5831 24.5161 13.6054 22.4938L22.3381 13.761L23.6881 15.1109L14.9553 23.8437Z" fill="#1661F6"/>
</svg>
